<svg xmlns="http://www.w3.org/2000/svg" viewBox="0 0 300 220">
  <rect width="300" height="220" fill="#2D2D3A"/>
  
  <!-- Dots for line numbers -->
  <g id="dots">
    <circle cx="20" cy="25" r="2" fill="#6B6B7B"/>
    <circle cx="20" cy="45" r="2" fill="#6B6B7B"/>
    <circle cx="20" cy="65" r="2" fill="#6B6B7B"/>
    <circle cx="20" cy="85" r="2" fill="#6B6B7B"/>
    <circle cx="20" cy="105" r="2" fill="#6B6B7B"/>
    <circle cx="20" cy="125" r="2" fill="#6B6B7B"/>
    <circle cx="20" cy="145" r="2" fill="#6B6B7B"/>
    <circle cx="20" cy="165" r="2" fill="#6B6B7B"/>
    <circle cx="20" cy="185" r="2" fill="#6B6B7B"/>
  </g>

  <!-- Import statements -->
  <rect x="30" y="25" width="100" height="6" rx="3" fill="#BD93F9"/>
  <rect x="140" y="25" width="70" height="6" rx="3" fill="#BD93F9"/>
  
  <!-- Interface/type definition -->
  <rect x="30" y="45" width="60" height="6" rx="3" fill="#FFB86C"/>
  <rect x="100" y="45" width="40" height="6" rx="3" fill="#4ECDC4"/>
  
  <!-- Class declaration -->
  <rect x="30" y="65" width="160" height="6" rx="3" fill="#FF6B9D"/>
  
  <!-- Opening block -->
  <rect x="45" y="85" width="20" height="6" rx="3" fill="#4ECDC4"/>
  
  <!-- Constructor -->
  <rect x="60" y="105" width="90" height="6" rx="3" fill="#A2FF76"/>
  <rect x="160" y="105" width="40" height="6" rx="3" fill="#4ECDC4"/>
  
  <!-- Method declaration -->
  <rect x="60" y="125" width="130" height="6" rx="3" fill="#FFB86C"/>
  
  <!-- Nested block -->
  <rect x="75" y="145" width="70" height="6" rx="3" fill="#FF6B9D"/>
  <rect x="155" y="145" width="40" height="6" rx="3" fill="#4ECDC4"/>
  
  <!-- Method content -->
  <rect x="90" y="165" width="110" height="6" rx="3" fill="#A2FF76"/>
  
  <!-- Closing blocks -->
  <rect x="60" y="185" width="20" height="6" rx="3" fill="#4ECDC4"/>
</svg>