<svg xmlns="http://www.w3.org/2000/svg" viewBox="0 0 300 200">
  <rect width="300" height="200" fill="#F5F5FA"/>
  
  <!-- Refined Grid -->
  <g stroke="#E0E0E8" stroke-width="0.5" opacity="0.15">
    <path d="M20 40 H280"/>
    <path d="M20 80 H280"/>
    <path d="M20 120 H280"/>
    <path d="M20 160 H280"/>
  </g>

  <!-- Left Navigation -->
  <rect x="20" y="20" width="50" height="160" rx="8" fill="#FFFFFF" filter="drop-shadow(0 2px 4px rgba(0, 0, 0, 0.08))"/>
  <circle cx="45" cy="40" r="12" fill="#FF6B6B" opacity="0.9"/>
  <rect x="32" y="70" width="26" height="3" rx="1.5" fill="#4ECDC4"/>
  <rect x="32" y="85" width="26" height="3" rx="1.5" fill="#FFB86C"/>
  <rect x="32" y="100" width="26" height="3" rx="1.5" fill="#FF6B6B"/>
  <rect x="32" y="115" width="26" height="3" rx="1.5" fill="#BD93F9"/>

  <!-- Main Area -->
  <rect x="85" y="20" width="195" height="160" rx="8" fill="#FFFFFF" filter="drop-shadow(0 2px 4px rgba(0, 0, 0, 0.08))"/>
  
  <!-- Search Bar -->
  <rect x="100" y="35" width="140" height="22" rx="11" fill="#F8F8FC"/>
  <circle cx="117" cy="46" r="5" fill="#4ECDC4" opacity="0.9"/>
  
  <!-- Add Button -->
  <circle cx="260" cy="46" r="9" fill="#4ECDC4" opacity="0.9"/>
  <rect x="256" y="45" width="8" height="2" fill="#FFFFFF"/>
  <rect x="259" y="42" width="2" height="8" fill="#FFFFFF"/>
  
  <!-- Content Cards -->
  <g transform="translate(100, 70)">
    <!-- Card 1 -->
    <rect width="80" height="90" rx="8" fill="#FFFFFF" filter="drop-shadow(0 1px 3px rgba(0, 0, 0, 0.05))"/>
    <rect x="12" y="15" width="45" height="3" rx="1.5" fill="#FF6B6B"/>
    <rect x="12" y="25" width="56" height="2" rx="1" fill="#4ECDC4" opacity="0.7"/>
    <circle cx="40" cy="50" r="10" fill="#FFB86C" opacity="0.8"/>
    <rect x="15" y="70" width="50" height="7" rx="3.5" fill="#F8F8FC" stroke="#4ECDC4" stroke-width="1.5"/>
    
    <!-- Card 2 -->
    <g transform="translate(90, 0)">
      <rect width="80" height="90" rx="8" fill="#FFFFFF" filter="drop-shadow(0 1px 3px rgba(0, 0, 0, 0.05))"/>
      <rect x="12" y="15" width="45" height="3" rx="1.5" fill="#BD93F9"/>
      <rect x="12" y="25" width="56" height="2" rx="1" fill="#FFB86C" opacity="0.7"/>
      <circle cx="40" cy="50" r="10" fill="#FF6B6B" opacity="0.8"/>
      <rect x="15" y="70" width="50" height="7" rx="3.5" fill="#F8F8FC" stroke="#BD93F9" stroke-width="1.5"/>
    </g>
  </g>
</svg>