<?xml version="1.0" encoding="UTF-8"?>
<svg id="Layer_1" xmlns="http://www.w3.org/2000/svg" version="1.1" viewBox="0 0 1000 1000">
  <!-- Generator: Adobe Illustrator 29.1.0, SVG Export Plug-In . SVG Version: 2.1.0 Build 142)  -->
  <path d="M914.04,223.69c-4.69-36.71-34.87-100.98-65.03-123.66-106.95-80.42-266.24-5.09-366.48,53.23.48-.27,16.33-5.18,20.48-6.27,67.17-17.52,109.47-21.82,179.53-5.02,136.37,32.71,119.54,189.36,79.99,293.08-66.52,174.46-250.56,337.28-432.68,380.27-46.39,10.95-129.67,23.44-164.54-15.64-22.48-25.19-38.08-83.28-4.44-103.39,63.8,96.92,203.14,49.16,285.53,3.31,114.87-63.93,249.14-218.67,271.57-350.54,39.55-232.51-281.1-143.11-376.54-48.68l70.55-24.87c52.78-17.68,183.27-23.46,194.76,49.96,21.08,134.66-111.92,291.86-229.31,342.54-51.6,22.28-124.02,45.01-160.5-11.05,57.16-37.15,206.63-108.42,215.44-182.86,7.11-60.07-41.31-111-101.33-109.8-129.93,2.6-231.86,162.22-193.53,283.4-102.45,105.77-51.77,248.27,96.01,264.16,16.11,1.73,33.9.39,51.32-.23,18.9-.67,37.72-2.89,56.2-6.95,17.81-3.92,35.77-7.3,53.34-12.45,221.13-64.8,446.44-296.35,506.03-518.42.98-3.64,1.82-7.33,2.59-11.02h0c15-44.81,17-97.81,11.04-139.12ZM332.79,467.41c42.24-18.36,46.8,3.43,34.88,21.46-11.92,18.03-60.59,70.37-128.54,98.83,0,0,15.61-81.72,93.66-120.29Z"/>
</svg>