<svg width="16" height="16" viewBox="0 0 16 16" xmlns="http://www.w3.org/2000/svg">
<path d="M15.9858 9.95412C15.5346 11.7102 14.4978 13.2353 13.0937 14.3148C11.7187 15.3707 9.99175 16 8.11784 16C5.87656 16 3.84681 15.1012 2.37763 13.6489C0.908347 12.196 0 10.189 0 7.97266C0 5.93433 0.770155 4.07167 2.04 2.65449C3.32336 1.22075 5.11668 0.244707 7.13866 0.0033363C7.39818 -0.0273049 7.63381 0.156542 7.66479 0.413798C7.68739 0.603397 7.59249 0.77958 7.43627 0.871503C6.63577 1.40198 5.97343 2.1214 5.51576 2.96524C5.07226 3.78361 4.81985 4.72004 4.81985 5.71657C4.81985 7.32588 5.47961 8.7833 6.54602 9.83785C7.61242 10.8924 9.08626 11.5448 10.7138 11.5448C11.5898 11.5448 12.4179 11.3577 13.1605 11.0226C13.9345 10.6728 14.6188 10.1615 15.1707 9.5333C15.3411 9.33797 15.64 9.3169 15.8369 9.48606C15.977 9.60544 16.028 9.78865 15.9854 9.95462L15.9867 9.95526L15.9858 9.95412Z" />
</svg>
