<svg width="24" height="24" viewBox="0 0 24 24" xmlns="http://www.w3.org/2000/svg">
<path d="M14.4362 21.9581C13.7462 22.1181 13.5662 22.0581 13.5662 22.0481C13.5362 22.0381 13.4962 21.9181 13.4762 21.8681C13.4162 21.6981 13.3062 21.4281 12.8962 21.3181C12.3962 21.1781 11.7262 21.3581 10.3262 21.9981C9.02624 22.5881 8.45624 22.7081 8.24624 22.7381C8.26624 22.5881 8.41624 22.1981 9.16624 21.3581C9.56624 20.9181 9.45624 20.4181 8.89624 20.1081C7.92624 19.5581 5.84624 19.6581 3.90624 20.9281C3.59624 21.1381 2.65624 21.4781 1.90624 21.3481C1.46624 21.2681 1.16624 21.0381 0.976242 20.6281C0.896242 20.4481 0.616242 20.3481 0.346242 20.4081C0.0862424 20.4681 -0.0637578 20.6681 0.0262422 20.8481C0.396242 21.6481 1.11624 21.9281 1.65624 22.0281C2.76624 22.2281 4.03624 21.8081 4.58624 21.4481C6.18624 20.3981 7.72624 20.3581 8.25624 20.6581C8.37624 20.7281 8.47624 20.8181 8.30624 21.0081C6.91624 22.5681 7.13624 23.0481 7.49624 23.2881C7.66624 23.3981 7.87624 23.4581 8.14624 23.4581C8.73624 23.4581 9.59624 23.1781 10.8662 22.6081C11.8762 22.1481 12.3062 22.0381 12.4762 22.0081C12.4862 22.0281 12.4962 22.0581 12.5062 22.0781C12.5762 22.2581 12.6762 22.5381 13.0862 22.6981C13.4662 22.8381 13.9962 22.8281 14.7562 22.6581C15.0162 22.5981 15.1562 22.3981 15.0762 22.2181C14.9762 21.9981 14.6962 21.8981 14.4362 21.9581Z"/>
<path d="M14.1162 17.0181C14.1062 17.0381 14.1162 17.0581 14.1062 17.0781L14.0862 17.1381L13.6862 21.2381C13.6662 21.4681 13.8062 21.6881 14.0162 21.7581C14.2362 21.8381 14.4762 21.7481 14.5962 21.5581L16.8762 18.1281C16.8962 18.1081 16.8862 18.0881 16.9062 18.0781C16.9162 18.0581 16.9262 18.0481 16.9362 18.0281L20.4562 8.13811L17.6262 7.12811L14.1162 17.0181ZM14.8762 19.3481L15.0162 17.8681L15.6962 18.1081L14.8762 19.3481Z"/>
<path d="M22.5162 2.4881L22.4762 2.4781L22.6462 2.0081C22.9262 1.2281 22.5162 0.368099 21.7362 0.0880989C20.9562 -0.191901 20.0962 0.218099 19.8162 0.998099L17.8662 6.4781L20.6962 7.4881L22.1462 3.4181L22.1862 3.4281C22.4462 3.5181 22.5862 3.8081 22.4862 4.0681L21.2062 7.6681L20.8662 8.6081L20.8062 8.7781C20.7162 9.0381 20.8462 9.3181 21.1062 9.4181C21.3662 9.5081 21.6462 9.3781 21.7462 9.1181L23.4262 4.4081C23.7062 3.6281 23.3062 2.7681 22.5162 2.4881Z"/>
</svg>
